<?xml version="1.0" standalone="no"?><!DOCTYPE svg PUBLIC "-//W3C//DTD SVG 1.1//EN" "http://www.w3.org/Graphics/SVG/1.1/DTD/svg11.dtd"><svg t="1776074753090" class="icon" viewBox="0 0 1024 1024" version="1.1" xmlns="http://www.w3.org/2000/svg" p-id="6326" xmlns:xlink="http://www.w3.org/1999/xlink" width="16" height="16"><path d="M512 512m-512 0a512 512 0 1 0 1024 0 512 512 0 1 0-1024 0Z" fill="#FFFFFF" p-id="6327"></path><path d="M850.261333 584.576l-85.034666-148.693333 36.437333-69.76a19.413333 19.413333 0 0 0 4.266667-24.277334l-46.933334-84.394666a20.053333 20.053333 0 0 0-16.384-9.088h-173.610666l-38.869334-67.968a18.218667 18.218667 0 0 0-13.866666-9.728h-91.861334a19.413333 19.413333 0 0 0-16.426666 9.685333v3.712l-86.784 148.650667h-83.242667a19.456 19.456 0 0 0-17.066667 9.088l-47.957333 84.949333a21.845333 21.845333 0 0 0 0 19.456l86.272 149.888-38.869333 67.968a21.845333 21.845333 0 0 0 0 19.370667l44.202666 77.866666a19.925333 19.925333 0 0 0 17.066667 9.685334h173.824l41.898667 72.832a20.053333 20.053333 0 0 0 15.189333 9.728h98.432a19.413333 19.413333 0 0 0 16.384-9.685334l85.632-149.888h76.373333a21.333333 21.333333 0 0 0 16.426667-10.282666l44.330667-78.293334a18.773333 18.773333 0 0 0 0-20.650666z m-107.52 9.728l-44.330666-81.962667-182.144 320.981334-49.92-81.877334h-182.186667l43.733333-79.488h92.928l-182.272-319.786666h95.402667l90.496-161.408 45.568 79.488-46.933333 81.92h364.458666l-45.994666 81.322666 91.733333 160.810667h-90.496z" fill="#605BEC" p-id="6328"></path><path d="M503.637333 630.997333l107.648-169.6h-215.850666z" fill="#605BEC" p-id="6329"></path></svg>