<?xml version="1.0" standalone="no"?><!DOCTYPE svg PUBLIC "-//W3C//DTD SVG 1.1//EN" "http://www.w3.org/Graphics/SVG/1.1/DTD/svg11.dtd"><svg t="1763086718148" class="icon" viewBox="0 0 1024 1024" version="1.1" xmlns="http://www.w3.org/2000/svg" p-id="3239" xmlns:xlink="http://www.w3.org/1999/xlink" width="32" height="32"><path d="M514.116267 850.926933c-185.7024 0-336.810667-151.108267-336.810667-336.810666s151.108267-336.810667 336.810667-336.810667c185.685333 0 336.810667 151.108267 336.810666 336.810667 0 185.685333-151.108267 336.810667-336.810666 336.810666z m0-666.231466c-181.6576 0-329.4208 147.7632-329.4208 329.4208 0 181.640533 147.7632 329.4208 329.4208 329.4208 181.640533 0 329.4208-147.780267 329.4208-329.4208 0-181.6576-147.780267-329.4208-329.4208-329.4208z" fill="#3C78FF" p-id="3240"></path><path d="M512 37.546667c261.700267 0 474.453333 212.753067 474.453333 474.453333 0 261.666133-212.821333 474.453333-474.453333 474.453333C250.333867 986.453333 37.546667 773.632 37.546667 512S250.333867 37.546667 512 37.546667z m0 43.178666C274.210133 80.725333 80.725333 274.210133 80.725333 512S274.210133 943.274667 512 943.274667 943.274667 749.789867 943.274667 512 749.789867 80.725333 512 80.725333z m0 36.727467c217.514667 0 394.5472 177.032533 394.5472 394.5472S729.514667 906.5472 512 906.5472 117.4528 729.514667 117.4528 512 294.485333 117.4528 512 117.4528z m0 28.074667C309.896533 145.527467 145.527467 309.879467 145.527467 512c0 202.103467 164.352 366.472533 366.472533 366.472533 202.103467 0 366.472533-164.352 366.472533-366.472533 0-202.103467-164.352-366.472533-366.472533-366.472533z m2.116267 23.2448c190.4128 0 345.344 154.9312 345.344 345.344S704.512 859.460267 514.116267 859.460267 168.772267 704.512 168.772267 514.116267 323.703467 168.772267 514.116267 168.772267z m0 24.456533c-176.9472 0-320.887467 143.940267-320.887467 320.887467 0 176.930133 143.940267 320.887467 320.887467 320.887466 176.930133 0 320.887467-143.957333 320.887466-320.887466 0-176.9472-143.957333-320.887467-320.887466-320.887467z" fill="#3C78FF" p-id="3241"></path><path d="M512 898.013867C299.178667 898.013867 125.986133 724.804267 125.986133 512 125.986133 299.178667 299.195733 125.986133 512 125.986133c212.821333 0 386.013867 173.2096 386.013867 386.013867 0 212.821333-173.2096 386.013867-386.013867 386.013867z m0-761.019734C305.186133 136.994133 136.994133 305.186133 136.994133 512c0 206.813867 168.192 375.005867 375.005867 375.005867 206.813867 0 375.005867-168.192 375.005867-375.005867 0-206.813867-168.192-375.005867-375.005867-375.005867z" fill="#3C78FF" p-id="3242"></path><path d="M512 972.8C257.8432 972.8 51.2 766.071467 51.2 512S257.8432 51.2 512 51.2s460.8 206.6432 460.8 460.8-206.728533 460.8-460.8 460.8z m0-905.728C266.683733 67.072 67.072 266.683733 67.072 512S266.683733 956.928 512 956.928 956.928 757.316267 956.928 512 757.316267 67.072 512 67.072z" fill="#3C78FF" p-id="3243"></path><path d="M244.360533 834.730667l269.397334-306.807467 280.490666 296.072533L514.372267 129.160533z" fill="#3C78FF" p-id="3244"></path><path d="M370.7392 787.5584c-6.946133-8.277333-10.461867-19.456-10.461867-33.621333 0-14.165333 3.515733-25.429333 10.461867-33.706667 6.9632-8.277333 16.469333-12.407467 28.5184-12.407467 9.335467 0 17.339733 2.645333 24.029867 8.021334 6.6048 5.358933 10.564267 12.305067 11.793066 20.8384h-11.605333a23.620267 23.620267 0 0 0-8.635733-13.380267c-4.317867-3.345067-9.506133-4.9152-15.496534-4.9152-8.362667 0-15.035733 3.157333-19.882666 9.591467-4.932267 6.417067-7.304533 15.0528-7.304534 25.941333 0 10.837333 2.4576 19.456 7.389867 25.890133 4.932267 6.417067 11.537067 9.591467 19.882667 9.591467 6.075733 0 11.264-1.501867 15.581866-4.4032 4.317867-2.986667 7.133867-6.946133 8.533334-11.963733h11.6224c-1.399467 8.192-5.358933 14.779733-11.8784 19.626666-6.519467 4.846933-14.4384 7.304533-23.8592 7.304534-12.1344 0-21.640533-4.130133-28.672-12.407467z m139.4176 10.376533c-1.757867-5.0176-3.259733-9.233067-4.4032-12.407466-1.143467-3.242667-2.56-7.389867-4.317867-12.4928H466.773333l-8.704 24.917333h-11.963733l32.290133-88.0128h11.605334l32.3072 87.995733h-12.1344z m-26.6752-73.489066c-1.8432 5.290667-3.413333 9.7792-4.744533 13.738666-1.3312 3.874133-2.730667 7.748267-4.0448 11.605334-1.3312 3.874133-2.901333 8.362667-4.846934 13.653333h28.16l-13.550933-38.912h-0.9728v-0.085333z m49.4592 50.261333h11.6224c0.699733 4.573867 3.072 8.192 7.048533 10.820267 4.0448 2.645333 9.045333 3.959467 15.3088 3.959466 5.888 0 10.734933-1.399467 14.609067-4.215466 3.7888-2.816 5.717333-6.3488 5.717333-10.581334a11.4688 11.4688 0 0 0-4.215466-9.130666c-2.833067-2.389333-7.2192-4.317867-13.312-5.905067l-11.264-2.901333c-7.9872-2.030933-13.806933-4.932267-17.408-8.704-3.618133-3.7888-5.461333-8.8064-5.461334-15.1552 0-7.560533 2.901333-13.636267 8.618667-18.295467 5.7344-4.6592 13.294933-6.9632 22.698667-6.9632 8.5504 0 15.7696 2.304 21.572266 6.877867 5.802667 4.573867 8.891733 10.461867 9.250134 17.681066h-11.434667a15.086933 15.086933 0 0 0-6.3488-10.376533c-3.4304-2.474667-7.918933-3.7888-13.380267-3.7888-5.717333 0-10.376533 1.314133-13.909333 3.959467a12.3904 12.3904 0 0 0-5.2736 10.478933 10.24 10.24 0 0 0 3.874133 8.260267c2.56 2.116267 6.8608 3.959467 12.8512 5.461333l9.3184 2.474667c9.079467 2.184533 15.581867 5.2736 19.541334 9.045333 3.959467 3.7888 5.973333 8.994133 5.973333 15.496533 0 8.192-2.9696 14.6944-8.96 19.456-5.973333 4.744533-13.994667 7.2192-24.1152 7.2192-9.4208 0-17.066667-2.286933-23.057067-6.8608a23.620267 23.620267 0 0 1-9.864533-18.312533z m90.658133 12.8512c-6.9632-8.277333-10.478933-19.456-10.478933-33.621333 0-14.165333 3.515733-25.429333 10.478933-33.706667 6.946133-8.277333 16.452267-12.407467 28.501334-12.407467 9.335467 0 17.339733 2.645333 24.029866 8.021334 6.6048 5.358933 10.581333 12.305067 11.793067 20.8384h-11.605333a23.620267 23.620267 0 0 0-8.635734-13.380267c-4.3008-3.345067-9.506133-4.9152-15.479466-4.9152-8.362667 0-15.0528 3.157333-19.899734 9.591467-4.9152 6.417067-7.304533 15.0528-7.304533 25.941333 0 10.837333 2.474667 19.456 7.389867 25.890133 4.949333 6.417067 11.537067 9.591467 19.899733 9.591467 6.075733 0 11.264-1.501867 15.581867-4.4032 4.3008-2.986667 7.1168-6.946133 8.533333-11.963733h11.605333c-1.399467 8.192-5.358933 14.779733-11.8784 19.626666-6.5024 4.846933-14.421333 7.304533-23.842133 7.304534-12.2368 0-21.742933-4.130133-28.689067-12.407467z" fill="#3C78FF" p-id="3245"></path></svg>