<svg xmlns="http://www.w3.org/2000/svg" width="11.478" height="13.197" viewBox="0 0 11.478 13.197">
  <g id="组_25290" data-name="组 25290" transform="translate(-1748.178 19402.221)">
    <g id="组_25285" data-name="组 25285" transform="translate(1652.328 -19434.07)">
      <path id="路径_24105" data-name="路径 24105" d="M104.254,32H97.29A1.322,1.322,0,0,0,96,33.29V43.608a1.322,1.322,0,0,0,1.29,1.29h8.6a1.322,1.322,0,0,0,1.29-1.29V35.353Zm-.344.946,1.806,2.064h-1.806Zm1.978,11.092h-8.6a.406.406,0,0,1-.43-.43V33.29a.406.406,0,0,1,.43-.43h5.761v3.009h3.267v7.739A.406.406,0,0,1,105.888,44.038Z" fill="#2666fb" stroke="#2666fb" stroke-width="0.3"/>
      <path id="路径_24106" data-name="路径 24106" d="M259.955,388.3l2.064-4.3h-1.032l-1.548,3.439L257.978,384H256.86l1.978,4.3Zm-3.955.86h6.879v.86H256Z" transform="translate(-157.85 -347.271)" fill="#2666fb" stroke="#2666fb" stroke-width="0.3"/>
    </g>
  </g>
</svg>
