<svg xmlns="http://www.w3.org/2000/svg" width="12.986" height="12.898" viewBox="0 0 12.986 12.898">
  <g id="组_25289" data-name="组 25289" transform="translate(-1655.969 19402.07)">
    <g id="组_25284" data-name="组 25284" transform="translate(1410.941 -19647.098)">
      <path id="路径_24092" data-name="路径 24092" d="M256,542.582a1.325,1.325,0,1,0,1.325-1.325A1.325,1.325,0,0,0,256,542.582Z" transform="translate(-10.707 -289.073)" fill="#2666fb"/>
      <path id="路径_24093" data-name="路径 24093" d="M369.371,363.382a1.325,1.325,0,1,0,1.325-1.325A1.325,1.325,0,0,0,369.371,363.382Z" transform="translate(-121.339 -114.202)" fill="#2666fb"/>
      <path id="路径_24094" data-name="路径 24094" d="M533.943,583.075a1.681,1.681,0,1,0,1.679-1.59A1.636,1.636,0,0,0,533.943,583.075Z" transform="translate(-281.936 -328.33)" fill="#2666fb"/>
      <path id="路径_24095" data-name="路径 24095" d="M654.629,286.582a1.325,1.325,0,1,0,1.325-1.325A1.325,1.325,0,0,0,654.629,286.582Z" transform="translate(-399.707 -39.257)" fill="#2666fb"/>
      <path id="路径_24096" data-name="路径 24096" d="M315.7,305.67a.486.486,0,0,1-.442-.265L311.9,300.9l-2.208,3.357a.575.575,0,0,1-.8.177.675.675,0,0,1-.177-.795l2.65-3.975a.811.811,0,0,1,.53-.353.486.486,0,0,1,.442.265l3.269,4.329,2.827-6.626a.593.593,0,1,1,1.06.53l-3.269,7.509a.811.811,0,0,1-.53.353Z" transform="translate(-62.104 -50.66)" fill="#2666fb"/>
      <path id="路径_24097" data-name="路径 24097" d="M268.191,260.593a.234.234,0,0,1,.265.265v6.626a.792.792,0,0,1-.8.8H256.795c-.707.088-.8-.53-.8-.883,0-.442.442-.353.53-.088.088.177.088.53.53.53h10.424a.57.57,0,0,0,.53-.53v-6.449C267.926,260.77,268.1,260.593,268.191,260.593ZM265.275,256a.265.265,0,1,1,0,.53h-8.3a.826.826,0,0,0-.442.618v4.77a.265.265,0,1,1-.53,0v-5.035a.816.816,0,0,1,.8-.883h8.481Z" transform="translate(-10.707 -10.706)" fill="#2666fb"/>
      <path id="路径_24098" data-name="路径 24098" d="M257.042,257.926H246.088c-.618,0-.972-.442-1.06-1.237a.589.589,0,0,1,.442-.618.5.5,0,0,1,.618.353v.088c.088.265.088.353.177.353h10.424a.234.234,0,0,0,.265-.265v-6.449a.53.53,0,0,1,1.06,0v6.626a1.086,1.086,0,0,1-.972,1.148ZM245.558,256.6c.088.618.265.8.53.8h10.954a.57.57,0,0,0,.53-.53v-.088a.75.75,0,0,1-.707.618H246.442a.617.617,0,0,1-.707-.618l-.177-.177Zm0-4.859a.57.57,0,0,1-.53-.53v-5.035a1.1,1.1,0,0,1,1.06-1.148h8.569a.57.57,0,0,1,.53.53.664.664,0,0,1-.618.618h-8.216a.234.234,0,0,0-.265.265v4.77A.57.57,0,0,1,245.558,251.742Zm.53-6.184a.591.591,0,0,0-.53.618v.177a.773.773,0,0,1,.8-.707h8.3v-.088Z" transform="translate(0 0)" fill="#2666fb"/>
    </g>
  </g>
</svg>
