<svg xmlns="http://www.w3.org/2000/svg" width="14" height="13.977" viewBox="0 0 14 13.977">
  <g id="组_25288" data-name="组 25288" transform="translate(-1566.173 19403.148)">
    <path id="路径_24109" data-name="路径 24109" d="M4.987,11.439l-1.095.947a1.988,1.988,0,1,1-.94-1.165l.885-.777A3.992,3.992,0,0,1,9.273,4.7l.932-.823a2,2,0,1,1,1.11,1.01l-1.01.885a3.984,3.984,0,0,1,.676,2.221,3.883,3.883,0,0,1-.582,2.073l1,1.033a1.988,1.988,0,1,1-1.173.94L9.4,11.2a3.961,3.961,0,0,1-2.407.777,4.007,4.007,0,0,1-2-.536ZM9.126,6.687l-.575-.66A2.493,2.493,0,1,0,8.6,9.91l.334-.342A2.485,2.485,0,0,0,9.5,8.015a2.539,2.539,0,0,0-.357-1.3ZM11.976,3.8a.777.777,0,1,0-.777-.777.777.777,0,0,0,.777.777ZM2,13.769a.777.777,0,1,0-.777-.777A.777.777,0,0,0,2,13.769Zm9.971,0a.777.777,0,1,0-.777-.777A.777.777,0,0,0,11.976,13.769Z" transform="translate(1566.173 -19404.164)" fill="#2666fb"/>
  </g>
</svg>
