<svg xmlns="http://www.w3.org/2000/svg" width="13.409" height="13.4" viewBox="0 0 13.409 13.4">
  <g id="组_25287" data-name="组 25287" transform="translate(-1476.845 19402.527)">
    <g id="组_25283" data-name="组 25283" transform="translate(-6 63)">
      <path id="路径_24090" data-name="路径 24090" d="M68.835,56.889a1.74,1.74,0,0,1,.913.332.848.848,0,0,1,.332.83V68.918a1.021,1.021,0,0,1-.415.83,1.74,1.74,0,0,1-.913.332H58.216A1.124,1.124,0,0,1,56.889,69V58.133a1.243,1.243,0,0,1,1.327-1.244Zm.083,1.161h-10.7a.081.081,0,0,0-.083.083V69a.081.081,0,0,0,.083.083h10.7A.081.081,0,0,0,69,69l-.083-10.95Zm-1.41,8.959a.588.588,0,0,1,0,1.161H60.29a.555.555,0,0,1-.5-.581c0-.332.166-.581.5-.581h7.217Zm-.083-2.489c.332,0,.5.249.5.581a.555.555,0,0,1-.5.581H64.936a.7.7,0,0,1-.581-.664.555.555,0,0,1,.5-.581h2.572Zm-5.475-5.143h1.742a.535.535,0,0,1,.5.5.548.548,0,0,1-.5.581h-1.41V65.1a.5.5,0,1,1-1,0V60.456h-1.41a.535.535,0,0,1-.5-.5c0-.249.249-.581.5-.581h2.074Zm5.475,2.655c.332,0,.5.249.5.581a.555.555,0,0,1-.5.581H64.936a.567.567,0,0,1-.581-.581.555.555,0,0,1,.5-.581Zm0-2.655c.332,0,.5.249.5.581a.555.555,0,0,1-.5.581H64.936a.581.581,0,1,1,0-1.161Z" transform="translate(1426.056 -19522.316)" fill="#2666fb" stroke="#2666fb" stroke-width="0.2"/>
    </g>
  </g>
</svg>
