<svg xmlns="http://www.w3.org/2000/svg" width="13.2" height="13.391" viewBox="0 0 13.2 13.391">
  <g id="组_25286" data-name="组 25286" transform="translate(-1413.744 19402.559)">
    <path id="路径_24107" data-name="路径 24107" d="M401.085,151.581a.586.586,0,0,1-.587-.587v-3.38a.585.585,0,0,1,.133-.372l7.062-8.606a.588.588,0,0,1,1.035.454l-1.607,11.438a.586.586,0,0,1-.847.44l-3.666-1.865a.586.586,0,0,1,.532-1.045l2.934,1.493,1.2-8.553-5.6,6.827v3.169a.588.588,0,0,1-.587.587Z" transform="translate(1018.108 -19540.85)" fill="#2666fb" stroke="#2666fb" stroke-width="0.2"/>
    <path id="路径_24108" data-name="路径 24108" d="M127.255,147.375a.6.6,0,0,1-.268-.065l-2.994-1.546a.588.588,0,0,1,0-1.041l11.823-6.251a.587.587,0,0,1,.548,1.037l-10.831,5.727,2,1.031a.586.586,0,0,1-.27,1.108Z" transform="translate(1290.169 -19540.832)" fill="#2666fb" stroke="#2666fb" stroke-width="0.2"/>
  </g>
</svg>
