<svg xmlns="http://www.w3.org/2000/svg" width="18.586" height="18.115" viewBox="0 0 18.586 18.115">
  <g id="组_25867" data-name="组 25867" transform="translate(16114.21 -6618.743)">
    <path id="路径_41999" data-name="路径 41999" d="M16.416,4.387a.5.5,0,0,0-.3-.441L8.377.08a.438.438,0,0,0-.4,0L.25,3.946a.731.731,0,0,0-.243.65V12.85a.442.442,0,0,0,.212.377s7.566,4.572,7.7,4.631a.571.571,0,0,0,.557.032l2.518-1.457c.215-.126.232-.317.2-.648s-.316-.508-.527-.386-1.878,1.124-1.878,1.124V8.986L15.463,5.1l.7-.425a.56.56,0,0,0,.249-.289ZM7.592,16.431l-6.43-3.92V5.3L7.591,8.989V16.43ZM8.18,7.786,2.064,4.319,8.18,1.263l6.114,3.056L8.18,7.786ZM18.235,13.88,14.8,15.943a.356.356,0,0,1-.4-.016c-.019,0-3.422-2.047-3.422-2.047a.329.329,0,0,1-.161-.283V9.908a.454.454,0,0,1,.305-.422L14.46,7.642a.342.342,0,0,1,.292,0L18.09,9.486h-.027a.067.067,0,0,1,.032.005l.086.044a.324.324,0,0,1,.21.279V13.6a.334.334,0,0,1-.157.284ZM12.109,9.843l2.479,1.392L17.1,9.843,14.587,8.458Zm2.972,5.042,2.534-1.529V10.6l-2.534,1.437v2.842Zm-.9-.045V12.055L11.7,10.649v2.694l2.485,1.5Z" transform="translate(-16114.115 6618.81)" fill="#fefefe"/>
    <path id="路径_41999_-_轮廓" data-name="路径 41999 - 轮廓" d="M8.18-.067a.54.54,0,0,1,.243.058l7.735,3.866a.6.6,0,0,1,.357.54l-.009.089h-.023a.755.755,0,0,1-.264.274l-.7.426L8.891,9.043v7.3c.418-.251,1.553-.934,1.728-1.034a.38.38,0,0,1,.192-.052.528.528,0,0,1,.484.516c.026.309.025.579-.253.742l-2.524,1.46a.672.672,0,0,1-.647-.031c-.128-.058-6.928-4.167-7.7-4.635a.545.545,0,0,1-.261-.462V4.585A.746.746,0,0,1,.2,3.863l.01-.006L7.937-.01A.54.54,0,0,1,8.18-.067Zm8.137,4.431a.416.416,0,0,0-.249-.329L8.333.169a.343.343,0,0,0-.306,0L.3,4.033a.566.566,0,0,0-.194.542c0,.01,0,.017,0,.021V12.85a.344.344,0,0,0,.164.291c2.593,1.567,7.537,4.551,7.687,4.626a.66.66,0,0,0,.286.079.389.389,0,0,0,.181-.045l2.516-1.456c.151-.088.184-.207.155-.553a.329.329,0,0,0-.284-.333.183.183,0,0,0-.093.025C10.51,15.6,8.86,16.6,8.843,16.608l-.152.091V8.929l6.721-3.914.7-.424a.469.469,0,0,0,.2-.225ZM8.18,1.152l6.327,3.162L8.18,7.9,1.851,4.314Zm5.9,3.173-5.9-2.95-5.9,2.95,5.9,3.347Zm-13.02.8L7.691,8.931v7.5H7.607l-.067.087L1.062,12.568ZM7.491,9.047,1.262,5.47v6.985l6.229,3.8Zm7.115-1.537a.445.445,0,0,1,.189.042l.006,0L18.139,9.4v0l.007,0,.082.041a.414.414,0,0,1,.264.368V13.6a.432.432,0,0,1-.2.369l-3.436,2.063a.4.4,0,0,1-.229.072.506.506,0,0,1-.28-.091h0c-.121-.067-.67-.393-3.415-2.041a.431.431,0,0,1-.209-.368V9.908a.556.556,0,0,1,.363-.513l3.334-1.844A.445.445,0,0,1,14.606,7.509Zm.1.222a.246.246,0,0,0-.2,0L11.161,9.58a.354.354,0,0,0-.241.329V13.6a.23.23,0,0,0,.112.2c1.119.672,3.23,1.938,3.406,2.039h.007l.017.013a.313.313,0,0,0,.161.052.2.2,0,0,0,.118-.038l.006,0,3.437-2.063a.232.232,0,0,0,.108-.2V9.814c0-.1-.107-.167-.153-.188l-.085-.043.01,0V9.534l-.022.039Zm-.12.612,2.722,1.5L14.587,11.35,11.9,9.843Zm2.308,1.5L14.588,8.572,12.313,9.843l2.274,1.277Zm.82.59v2.98l-2.734,1.649V11.984Zm-.2,2.867V10.776L15.181,12.1v2.608ZM11.6,10.477,14.283,12v3.021l-.152-.09L11.6,13.4Zm2.485,1.636L11.8,10.82v2.466l2.285,1.379Z" transform="translate(-16114.115 6618.81)" fill="#fefefe"/>
  </g>
</svg>
