<svg xmlns="http://www.w3.org/2000/svg" width="18.147" height="17.282" viewBox="0 0 18.147 17.282">
  <path id="路径_24175" data-name="路径 24175" d="M42.031,52.266h-2.61V50.521A1.719,1.719,0,0,0,37.7,48.8H27.318A1.719,1.719,0,0,0,25.6,50.521V60.907a1.719,1.719,0,0,0,1.717,1.717h2.61v1.744a1.719,1.719,0,0,0,1.717,1.718H42.031a1.719,1.719,0,0,0,1.717-1.718V53.983a1.719,1.719,0,0,0-1.717-1.717Zm-4.314-1.744v1.744H31.645a1.719,1.719,0,0,0-1.717,1.717V60.92h-2.61a.014.014,0,0,1-.014-.014V50.521a.014.014,0,0,1,.014-.014H37.7a.014.014,0,0,1,.014.014Zm-6.085,10.4V53.983a.014.014,0,0,1,.014-.014h6.072v6.937a.014.014,0,0,1-.014.014H31.632Zm10.413-6.937V64.369a.013.013,0,0,1-.014.013H31.645a.014.014,0,0,1-.014-.013V62.624H37.7a1.719,1.719,0,0,0,1.717-1.717V53.969h2.61a.014.014,0,0,1,.014.014Z" transform="translate(-25.601 -48.804)" />
</svg>
