<svg xmlns="http://www.w3.org/2000/svg" width="16" height="18.565" viewBox="0 0 16 18.565">
  <path id="路径_24166" data-name="路径 24166" d="M104,25.6a.733.733,0,0,1,.371.1l-.082-.043a.73.73,0,0,1,.066.033l.016.01,7.267,4.275a.733.733,0,0,1,.25.243l.011.018a.736.736,0,0,1,.037.073l-.049-.092a.737.737,0,0,1,.112.388l0-.086,0,.054v8.581a.735.735,0,0,1-.1.371l-.013.023q-.014.021-.029.042l.043-.065a.736.736,0,0,1-.26.26l.042-.026-.022.015-.02.012-7.267,4.275a.735.735,0,0,1-.253.09l-.118.01a.732.732,0,0,1-.371-.1l.092.046a.727.727,0,0,1-.077-.037l-.015-.01-7.267-4.275-.02-.012a.73.73,0,0,1-.241-.248l-.016-.028q-.015-.028-.027-.056l.043.085a.736.736,0,0,1-.1-.373l0,.077q0-.032,0-.065V30.608a.735.735,0,0,1,.158-.453l-.046.065a.733.733,0,0,1,.155-.177l0,0,.09-.062,7.267-4.275A.735.735,0,0,1,104,25.6Zm0,10.133-5.82,3.424,5.088,2.994V39.157a.733.733,0,0,1,1.456-.118l.01.118v2.991l5.087-2.991Zm.734-8.118v6.848l5.8,3.413V31.929l-2.3,1.438a.733.733,0,0,1-.872-1.173l.1-.071,2.4-1.5Zm-1.466,0-5.121,3.012,2.4,1.5a.733.733,0,0,1-.672,1.3l-.105-.055-2.3-1.438v5.946l5.8-3.413Z" transform="translate(-96 -25.6)"/>
</svg>
