<svg id="组_25383" data-name="组 25383" xmlns="http://www.w3.org/2000/svg" width="18.148" height="17.479" viewBox="0 0 18.148 17.479">
  <path id="路径_24176" data-name="路径 24176" d="M7.361,13.84a.289.289,0,0,1,0-.125V8.576a.379.379,0,0,1,.183-.326l4.206-2.566a.344.344,0,0,1,.358,0,.4.4,0,0,1,.175.326v.485a2.058,2.058,0,0,1,.319,0h.868V4.523a1.055,1.055,0,0,0-.494-.9L7.234.144a.933.933,0,0,0-1,0L.494,3.62a1.055,1.055,0,0,0-.494.9v6.953a1.055,1.055,0,0,0,.494.9l5.744,3.5a.971.971,0,0,0,1,0l.526-.326a2.352,2.352,0,0,1-.112-.251,2.61,2.61,0,0,1-.287-1.462Zm-1.219-.125a.4.4,0,0,1-.048.192.354.354,0,0,1-.23.192.337.337,0,0,1-.288-.058L1.37,11.467a.379.379,0,0,1-.183-.326V6.01a.4.4,0,0,1,.048-.159.349.349,0,0,1,.486-.134L5.967,8.25a.4.4,0,0,1,.175.326Zm.8-6.543a.344.344,0,0,1-.358,0L2.318,4.606a.3.3,0,0,1-.127-.142.383.383,0,0,1-.039-.283.366.366,0,0,1,.166-.227L6.556,1.389a.344.344,0,0,1,.358,0l4.238,2.566a.423.423,0,0,1,.135.134.4.4,0,0,1-.135.518Z" transform="translate(0 0)" />
  <path id="路径_24177" data-name="路径 24177" d="M532.386,432.9a6.259,6.259,0,0,0-4.072-1.235,6.336,6.336,0,0,0-4.08,1.235,1.836,1.836,0,0,0-.662,1.342v5.092c0,1.45,2.085,2.578,4.742,2.578s4.742-1.128,4.742-2.578v-5.092A1.833,1.833,0,0,0,532.386,432.9Zm-7.514,1.128a2.183,2.183,0,0,1,.679-.492,5.039,5.039,0,0,1,1.225-.4,7.917,7.917,0,0,1,3.112,0,5.312,5.312,0,0,1,1.208.412,2.417,2.417,0,0,1,.645.483.5.5,0,0,1,.124.251.505.505,0,0,1-.124.251,2.406,2.406,0,0,1-.679.492,5.046,5.046,0,0,1-1.208.412,7.917,7.917,0,0,1-3.112,0,5.047,5.047,0,0,1-1.208-.412,2.182,2.182,0,0,1-.679-.492.441.441,0,0,1-.124-.251.436.436,0,0,1,.141-.251Zm7.009,2.792a.508.508,0,0,1-.124.251,2.4,2.4,0,0,1-.679.492,5.312,5.312,0,0,1-1.208.412,7.915,7.915,0,0,1-3.112,0,5.046,5.046,0,0,1-1.208-.412,2.184,2.184,0,0,1-.679-.492.442.442,0,0,1-.124-.251V436a7.555,7.555,0,0,0,7.134,0Zm-7.009,2.757a.4.4,0,0,1-.124-.242V438.5a7.907,7.907,0,0,0,7.134,0v.823a.507.507,0,0,1-.124.251,2.406,2.406,0,0,1-.679.492,5.044,5.044,0,0,1-1.208.412,7.916,7.916,0,0,1-3.112,0,5.043,5.043,0,0,1-1.208-.412A2.06,2.06,0,0,1,524.872,439.575Z" transform="translate(-514.909 -424.432)" />
  <path id="路径_24178" data-name="路径 24178" d="M611.8,705.613a.358.358,0,1,0,.351.359A.359.359,0,0,0,611.8,705.613Zm0,2.262a.359.359,0,1,0,.351.351A.359.359,0,0,0,611.8,707.876Z" transform="translate(-602.011 -694.146)" />
</svg>
