<svg xmlns="http://www.w3.org/2000/svg" width="16.199" height="16.2" viewBox="0 0 16.199 16.2">
  <g id="组_25381" data-name="组 25381" transform="translate(-95.9 -95.9)">
    <path id="路径_24167" data-name="路径 24167" d="M423.228,577.225v-.683a.343.343,0,0,0-.342-.341h-3.245a.343.343,0,0,0-.342.341v.683a.343.343,0,0,0,.342.342h3.245A.341.341,0,0,0,423.228,577.225Z" transform="translate(-317.277 -471.05)" stroke="#333" stroke-width="0.2"/>
    <path id="路径_24168" data-name="路径 24168" d="M110.154,96H97.846A1.847,1.847,0,0,0,96,97.846v12.308A1.847,1.847,0,0,0,97.846,112h4.3a.615.615,0,0,0,.615-.615v-2.9a.616.616,0,0,0-.381-.569,4.234,4.234,0,0,1-.85-7.352v2.213a.615.615,0,0,0,.615.615h3.7a.615.615,0,0,0,.615-.615V100.56a4.239,4.239,0,0,1,1.025,5.84.309.309,0,0,0,.252.485h3.994a.266.266,0,0,0,.265-.265V97.846A1.847,1.847,0,0,0,110.154,96Zm-.946,9.652a5.464,5.464,0,0,0-3.125-6.7.615.615,0,0,0-.85.569v2.638h-2.467V99.523a.616.616,0,0,0-.85-.569,5.464,5.464,0,0,0-.683,9.76.621.621,0,0,1,.3.535v1.523h-3.69a.615.615,0,0,1-.615-.615V97.846a.615.615,0,0,1,.615-.615h12.308a.615.615,0,0,1,.615.615v7.806Z" stroke="#333" stroke-width="0.2"/>
    <path id="路径_24169" data-name="路径 24169" d="M577.008,737.966h-6.966a.343.343,0,0,1-.341-.342v-.683a.343.343,0,0,1,.341-.342h6.966a.343.343,0,0,1,.342.342v.683A.343.343,0,0,1,577.008,737.966Zm0,2.636h-6.966a.343.343,0,0,1-.341-.342v-.683a.343.343,0,0,1,.341-.342h6.966a.343.343,0,0,1,.342.342v.683A.341.341,0,0,1,577.008,740.6Z" transform="translate(-465.349 -628.686)" stroke="#333" stroke-width="0.2"/>
  </g>
</svg>
