<svg xmlns="http://www.w3.org/2000/svg" width="16.13" height="16.13" viewBox="0 0 16.13 16.13">
  <path id="路径_24180" data-name="路径 24180" d="M93.28,85.312a3.629,3.629,0,0,1,2.549,6.212L97.375,94.2a3.629,3.629,0,1,1-3.081,4.825H92.267a3.63,3.63,0,1,1-3.217-4.835l1.585-2.764a3.629,3.629,0,0,1,2.647-6.111ZM88.845,95.8a2.016,2.016,0,1,0,1.967,2.016A2.016,2.016,0,0,0,88.845,95.8Zm8.871,0a2.016,2.016,0,1,0,1.967,2.016A2.016,2.016,0,0,0,97.716,95.8Zm-5.742-3.468L90.64,94.658a3.629,3.629,0,0,1,1.812,2.757h1.657a3.629,3.629,0,0,1,1.7-2.694l-1.357-2.347a3.624,3.624,0,0,1-2.481-.047Zm1.306-5.2a1.814,1.814,0,1,0,1.814,1.814A1.814,1.814,0,0,0,93.28,87.126Z" transform="translate(-85.214 -85.312)"/>
</svg>
