<svg xmlns="http://www.w3.org/2000/svg" width="17.339" height="16.331" viewBox="0 0 17.339 16.331">
  <g id="组_25382" data-name="组 25382" transform="translate(-157.438 -157.438)">
    <path id="路径_24170" data-name="路径 24170" d="M163.9,157.538a1.335,1.335,0,0,1,1.383,1.281v4.607a1.335,1.335,0,0,1-1.383,1.281h-4.976a1.335,1.335,0,0,1-1.384-1.281V158.82a1.335,1.335,0,0,1,1.383-1.282H163.9Zm.093,1.195h-5.163v4.78h5.163ZM163.9,166.5a1.335,1.335,0,0,1,1.384,1.281v4.608a1.335,1.335,0,0,1-1.383,1.281h-4.976a1.335,1.335,0,0,1-1.384-1.281v-4.607a1.335,1.335,0,0,1,1.383-1.281Zm.093,1.195h-5.162v4.78h5.163v-4.78Z"  stroke="#fff" stroke-width="0.2"/>
    <path id="路径_24171" data-name="路径 24171" d="M512,393.846m.968,0h6.776a.856.856,0,0,1,.968.968h0a.856.856,0,0,1-.968.968h-6.776a.856.856,0,0,1-.968-.968h0A.856.856,0,0,1,512.968,393.846Z" transform="translate(-346.035 -230.985)"  stroke="#fff" stroke-width="0.2"/>
    <path id="路径_24172" data-name="路径 24172" d="M512,748.308m.968,0h6.776a.856.856,0,0,1,.968.968h0a.856.856,0,0,1-.968.968h-6.776a.856.856,0,0,1-.968-.968h0A.856.856,0,0,1,512.968,748.308Z" transform="translate(-346.035 -577.543)"  stroke="#fff" stroke-width="0.2"/>
    <path id="路径_24173" data-name="路径 24173" d="M512,551.385m.968,0h6.776a.856.856,0,0,1,.968.968h0a.856.856,0,0,1-.968.968h-6.776a.856.856,0,0,1-.968-.968h0A.856.856,0,0,1,512.968,551.385Z" transform="translate(-346.035 -384.975)"  stroke="#fff" stroke-width="0.2"/>
    <path id="路径_24174" data-name="路径 24174" d="M512,196.923m.968,0h6.776a.856.856,0,0,1,.968.968h0a.856.856,0,0,1-.968.968h-6.776a.856.856,0,0,1-.968-.968h0A.856.856,0,0,1,512.968,196.923Z" transform="translate(-346.035 -38.417)"  stroke="#fff" stroke-width="0.2"/>
  </g>
</svg>
