<svg viewBox="0 0 16 16" xmlns="http://www.w3.org/2000/svg" xmlns:xlink="http://www.w3.org/1999/xlink" width="16.000000" height="16.000000" fill="none" customFrame="#000000">
	<g id="指标资产">
		<g id="编组">
			<path id="路径" d="M0 0L16 0L16 16L0 16L0 0Z" fill-rule="evenodd" />
			<path id="形状" d="M2 11.6667L2 5C2 3.34314 4.6863 2 8 2C11.3137 2 14 3.34314 14 5L14 11.6667C14 13.3235 11.3137 14.6667 8 14.6667C4.6863 14.6667 2 13.3235 2 11.6667ZM11.6463 5.92876C10.7239 6.38994 9.41546 6.66666 8 6.66666C6.58452 6.66666 5.27604 6.38994 4.35364 5.92876C3.64068 5.57226 3.33334 5.20894 3.33334 5C3.33334 4.79106 3.64068 4.42774 4.35364 4.07124C5.27604 3.61006 6.58452 3.33334 8 3.33334C9.41546 3.33334 10.7239 3.61006 11.6463 4.07124C12.3593 4.42774 12.6667 4.79106 12.6667 5C12.6667 5.20894 12.3593 5.57226 11.6463 5.92876ZM4.35364 9.26206C3.64068 8.9056 3.33334 8.54226 3.33334 8.33334L3.33334 6.8858C4.4333 7.56546 6.11516 8 8 8C9.88486 8 11.5667 7.56546 12.6667 6.8858L12.6667 8.33334C12.6667 8.54226 12.3593 8.9056 11.6463 9.26206C10.7239 9.72326 9.41546 10 8 10C6.58452 10 5.27604 9.72326 4.35364 9.26206ZM8 11.3333C9.88486 11.3333 11.5667 10.8988 12.6667 10.2191L12.6667 11.6667C12.6667 11.8756 12.3593 12.2389 11.6463 12.5954C10.7239 13.0566 9.41546 13.3333 8 13.3333C6.58452 13.3333 5.27604 13.0566 4.35364 12.5954C3.64068 12.2389 3.33334 11.8756 3.33334 11.6667L3.33334 10.2191C4.4333 10.8988 6.11516 11.3333 8 11.3333Z" fill="currentColor" fill-rule="evenodd" />
		</g>
	</g>
</svg>
