<svg xmlns="http://www.w3.org/2000/svg" width="15.981" height="16" viewBox="0 0 15.981 16">
  <g id="组_25868" data-name="组 25868" transform="translate(15080.975 -6170.353)">
    <g id="组_25866" data-name="组 25866" transform="translate(-15153.475 6089.353)">
      <path id="路径_41997" data-name="路径 41997" d="M228.074,318.382h-8.709a.738.738,0,0,0-.736.736c0,.405.331,1.736.736,1.736h8.709c.405,0,.736-1.331.736-1.736A.738.738,0,0,0,228.074,318.382Zm.764-8.575a.548.548,0,0,0-.764.115l-2.256,3.051a1.271,1.271,0,0,0-.669-.191,1.255,1.255,0,0,0-.6.153l-2.669-2.669a1.273,1.273,0,0,0-2.545.007,1.286,1.286,0,0,0,.129.56l-1.029,2.256a.545.545,0,1,0,.991.453l.922-2.022a1.337,1.337,0,0,0,.258.025,1.266,1.266,0,0,0,.76-.251l2.535,2.535a1.314,1.314,0,0,0-.02.225,1.273,1.273,0,1,0,2.545,0c0-.02,0-.042,0-.062l2.533-3.422A.548.548,0,0,0,228.838,309.807Z" transform="translate(-143.228 -223.855)"/>
      <path id="路径_41998" data-name="路径 41998" d="M87.027,81H73.955A1.454,1.454,0,0,0,72.5,82.455V92.636a1.454,1.454,0,0,0,1.455,1.455H87.027a1.454,1.454,0,0,0,1.455-1.455V82.455A1.454,1.454,0,0,0,87.027,81Zm-.011,11.255a.365.365,0,0,1-.364.364H74.329a.365.365,0,0,1-.364-.364V82.836a.365.365,0,0,1,.364-.364H86.651a.365.365,0,0,1,.364.364v9.418Z" transform="translate(0 0)"/>
    </g>
  </g>
</svg>
