<svg xmlns="http://www.w3.org/2000/svg" width="46.138" height="46.043" viewBox="0 0 46.138 46.043">
  <path id="应用" d="M77.261,4.509a2.92,2.92,0,0,1,2.112.854,2.8,2.8,0,0,1,.878,2.089V19.319a3,3,0,0,1-2.99,2.99H65.394a2.8,2.8,0,0,1-2.089-.878,2.92,2.92,0,0,1-.854-2.112V7.452a2.917,2.917,0,0,1,2.943-2.943H77.261Zm0,23.733a2.92,2.92,0,0,1,2.112.854,2.8,2.8,0,0,1,.878,2.089V43.1a2.8,2.8,0,0,1-.878,2.089,2.92,2.92,0,0,1-2.112.854H65.394A2.917,2.917,0,0,1,62.451,43.1V31.186a2.917,2.917,0,0,1,2.943-2.943Zm23.781,0a2.917,2.917,0,0,1,2.943,2.943V43.1a2.917,2.917,0,0,1-2.943,2.943H89.175a2.92,2.92,0,0,1-2.112-.854,2.8,2.8,0,0,1-.878-2.089V31.186a2.8,2.8,0,0,1,.878-2.089,2.92,2.92,0,0,1,2.112-.854Zm6.6-18.512a3.053,3.053,0,0,1,.949,2.231,2.9,2.9,0,0,1-.949,2.183l-8.829,8.829a3.041,3.041,0,0,1-4.414,0l-8.829-8.829a2.974,2.974,0,0,1-.9-2.183,3.134,3.134,0,0,1,.9-2.231L94.4.9a3.152,3.152,0,0,1,4.414,0Z" transform="translate(-62.451 0)" fill="#3764f2"/>
</svg>
