<svg xmlns="http://www.w3.org/2000/svg" width="18.147" height="15.637" viewBox="0 0 18.147 15.637">
  <path id="路径_24179" data-name="路径 24179" d="M11.055,15.121a16.316,16.316,0,0,1-4.187.5,15.345,15.345,0,0,1-4.68-.651A5.2,5.2,0,0,1,.638,14.2,1.716,1.716,0,0,1-.1,12.876V2.736a1.711,1.711,0,0,1,.734-1.32A5.182,5.182,0,0,1,2.187.638a17.129,17.129,0,0,1,9.361,0,5.182,5.182,0,0,1,1.551.776,1.738,1.738,0,0,1,.734,1.262v3.27a4.859,4.859,0,1,1-2.787,9.175Zm2.152-.767a3.585,3.585,0,1,0-1.76-.464.631.631,0,0,1,.169.147,3.6,3.6,0,0,0,1.6.317ZM1.167,12.875c0,.015,0,.131.255.324a3.877,3.877,0,0,0,1.166.571,14.129,14.129,0,0,0,4.281.587,16.674,16.674,0,0,0,2.83-.229,4.854,4.854,0,0,1-1.143-1.956c-.538.047-1.1.072-1.686.072a15.366,15.366,0,0,1-4.681-.65,6.429,6.429,0,0,1-1.027-.431Zm0-3.374c0,.015,0,.129.255.326a3.945,3.945,0,0,0,1.166.566,14.092,14.092,0,0,0,4.281.587c.512,0,1.009-.021,1.482-.06v-.367a4.841,4.841,0,0,1,.423-1.781,17.671,17.671,0,0,1-1.907.1,15.347,15.347,0,0,1-4.681-.653,6.33,6.33,0,0,1-1.027-.43V9.5Zm0-3.374c0,.015,0,.129.255.326a3.961,3.961,0,0,0,1.166.566,14.119,14.119,0,0,0,4.281.587,16.463,16.463,0,0,0,2.875-.241l.081-.081.012-.012.022-.021.016-.015L9.909,7.2l.019-.018.016-.015.025-.022.013-.012.037-.032.012-.01.029-.025.012-.01.04-.032L10.148,7l.013-.01L10.2,6.96l.041-.032h.009l.035-.028h.007l.043-.031.037-.026.012-.009.038-.026.043-.029h.01l.035-.023.012-.007.041-.028.013-.007.031-.019.016-.01.04-.023h.01l.037-.022.015-.009.038-.022h.007l.045-.026h.01l.041-.022.1-.053a4.86,4.86,0,0,1,1.576-.491V4.467a6.533,6.533,0,0,1-1.027.44,17.148,17.148,0,0,1-9.364,0,6.43,6.43,0,0,1-1.027-.44V6.184Zm0-3.374c0,.015,0,.131.255.326a3.924,3.924,0,0,0,1.166.568,15.912,15.912,0,0,0,8.562,0,3.968,3.968,0,0,0,1.166-.568c.249-.2.257-.31.257-.326s-.009-.126-.257-.324A4.023,4.023,0,0,0,11.15,1.86a15.959,15.959,0,0,0-8.562,0,4,4,0,0,0-1.166.568c-.241.18-.249.295-.249.307ZM12.89,13.022l-1.467-.848a.64.64,0,0,1-.318-.549V9.938a.641.641,0,0,1,.318-.552l1.467-.842a.631.631,0,0,1,.634,0l1.467.844a.637.637,0,0,1,.317.55v1.689a.637.637,0,0,1-.317.55l-1.467.845a.637.637,0,0,1-.634,0Zm-.512-2.72v.959l.829.478.829-.478V10.3l-.829-.478Z" transform="translate(0.096 0.014)"/>
</svg>
